<?xml version="1.0" encoding="UTF-8" standalone="no"?>
<!DOCTYPE svg PUBLIC "-//W3C//DTD SVG 1.1//EN"
 "http://www.w3.org/Graphics/SVG/1.1/DTD/svg11.dtd">
<!-- Generated by graphviz version 10.0.1 (20240210.2158)
 -->
<!-- Title: G Pages: 1 -->
<svg width="686pt" height="44pt"
 viewBox="0.00 0.00 686.25 44.00" xmlns="http://www.w3.org/2000/svg" xmlns:xlink="http://www.w3.org/1999/xlink">
<g id="graph0" class="graph" transform="scale(1 1) rotate(0) translate(4 40)">
<title>G</title>
<polygon fill="white" stroke="none" points="-4,4 -4,-40 682.25,-40 682.25,4 -4,4"/>
<!-- data.aws_ami.app_ami -->
<g id="node1" class="node">
<title>data.aws_ami.app_ami</title>
<polygon fill="none" stroke="black" points="156.25,-36 0,-36 0,0 156.25,0 156.25,-36"/>
<text text-anchor="middle" x="78.12" y="-12.2" font-family="sans-serif" font-size="14.00">data.aws_ami.app_ami</text>
</g>
<!-- aws_eip.lb -->
<g id="node2" class="node">
<title>aws_eip.lb</title>
<polygon fill="none" stroke="black" points="450.75,-36 371,-36 371,0 450.75,0 450.75,-36"/>
<text text-anchor="middle" x="410.88" y="-12.2" font-family="sans-serif" font-size="14.00">aws_eip.lb</text>
</g>
<!-- aws_instance.udemy -->
<g id="node3" class="node">
<title>aws_instance.udemy</title>
<polygon fill="none" stroke="black" points="335,-36 192.25,-36 192.25,0 335,0 335,-36"/>
<text text-anchor="middle" x="263.62" y="-12.2" font-family="sans-serif" font-size="14.00">aws_instance.udemy</text>
</g>
<!-- aws_eip.lb&#45;&gt;aws_instance.udemy -->
<g id="edge1" class="edge">
<title>aws_eip.lb&#45;&gt;aws_instance.udemy</title>
<path fill="none" stroke="black" d="M370.57,-18C363.06,-18 354.94,-18 346.66,-18"/>
<polygon fill="black" stroke="black" points="346.82,-14.5 336.82,-18 346.82,-21.5 346.82,-14.5"/>
</g>
<!-- aws_instance.udemy&#45;&gt;data.aws_ami.app_ami -->
<g id="edge2" class="edge">
<title>aws_instance.udemy&#45;&gt;data.aws_ami.app_ami</title>
<path fill="none" stroke="black" d="M191.94,-18C184.05,-18 175.94,-18 167.86,-18"/>
<polygon fill="black" stroke="black" points="168,-14.5 158,-18 168,-21.5 168,-14.5"/>
</g>
<!-- aws_security_group.allow_tls -->
<g id="node4" class="node">
<title>aws_security_group.allow_tls</title>
<polygon fill="none" stroke="black" points="678.25,-36 486.75,-36 486.75,0 678.25,0 678.25,-36"/>
<text text-anchor="middle" x="582.5" y="-12.2" font-family="sans-serif" font-size="14.00">aws_security_group.allow_tls</text>
</g>
<!-- aws_security_group.allow_tls&#45;&gt;aws_eip.lb -->
<g id="edge3" class="edge">
<title>aws_security_group.allow_tls&#45;&gt;aws_eip.lb</title>
<path fill="none" stroke="black" d="M486.27,-18C478.15,-18 470.15,-18 462.59,-18"/>
<polygon fill="black" stroke="black" points="462.61,-14.5 452.61,-18 462.61,-21.5 462.61,-14.5"/>
</g>
</g>
</svg>
